<?xml version="1.0" encoding="UTF-8"?>
<svg width="13px" height="14px" viewBox="0 0 13 14" version="1.1" xmlns="http://www.w3.org/2000/svg" xmlns:xlink="http://www.w3.org/1999/xlink">
    <title>whatsapp</title>
    <g id="Page-1" stroke="none" stroke-width="1" fill="none" fill-rule="evenodd">
        <g id="Phone---Home-V3" transform="translate(-36.000000, -2764.000000)" stroke="#FFFFFF" stroke-width="0.25">
            <g id="Footer" transform="translate(-5.000000, 2666.000000)">
                <g id="Flapz-Contacto" transform="translate(42.000000, 20.000000)">
                    <g id="Whatsapp-Business" transform="translate(0.000000, 77.000000)">
                        <g id="whatsapp" transform="translate(0.000000, 2.000000)">
                            <g id="Group" transform="translate(0.000000, 0.086975)">
                                <path d="M3.72409091,2.36918182 C3.71832417,2.37022323 3.71263055,2.37163525 3.70704545,2.37340909 C3.12473168,2.55226364 2.731635,2.86070455 2.518125,3.25551818 C2.30461364,3.65033182 2.27344091,4.12063636 2.36897727,4.61063182 C2.56005259,5.59063636 3.25573909,6.67467273 4.13744318,7.57654091 C5.01914714,8.47840909 6.08785077,9.19600909 7.07352273,9.40040455 C7.56635877,9.50260909 8.04113045,9.47383636 8.44994318,9.25978636 C8.85875727,9.04572273 9.18978695,8.64819545 9.40022727,8.05381364 C9.41989447,7.99477518 9.3971033,7.92991081 9.34482955,7.89615 L7.393125,6.67313182 C7.3890277,6.67007643 7.38476188,6.6672538 7.38034773,6.66467727 L7.371825,6.65622273 C7.3704069,6.6562006 7.36898855,6.6562006 7.36757045,6.65622273 C7.36477957,6.65471495 7.36193693,6.653305 7.35904773,6.65199545 C7.35762963,6.65197333 7.35621128,6.65197333 7.35479318,6.65199545 C7.34809606,6.64708282 7.34096415,6.64279226 7.33348636,6.63917727 C7.33206827,6.63915515 7.33064991,6.63915515 7.32923182,6.63917727 C7.3263916,6.63908848 7.32354931,6.63908848 7.32070909,6.63917727 C7.319291,6.63915515 7.31787264,6.63915515 7.31645455,6.63917727 C7.30808533,6.63695977 7.29952395,6.63554429 7.29088636,6.63495 C7.28224877,6.63554429 7.2736874,6.63695977 7.26531818,6.63917727 C7.24176344,6.64334479 7.21971917,6.65363447 7.20139773,6.66901364 C7.19988215,6.67178174 7.19846311,6.67460162 7.19714318,6.67746818 C7.18902368,6.68508906 7.18186813,6.69367571 7.17583636,6.70303636 L6.67299532,7.20160909 C5.79981941,6.79060909 5.15203895,6.07024091 4.57640441,5.09649545 L5.04089305,4.632 L5.06219986,4.6107 C5.06516349,4.60800828 5.06800716,4.60518737 5.07072259,4.60224545 C5.07214069,4.60226758 5.07355904,4.60226758 5.07497714,4.60224545 C5.07649271,4.59947735 5.07791175,4.59665747 5.07923168,4.59379091 C5.08068068,4.59241318 5.08209921,4.59100374 5.08348623,4.58956364 C5.0850018,4.58679553 5.08642084,4.58397565 5.08774077,4.58110909 C5.08776261,4.57970008 5.08776261,4.57829082 5.08774077,4.57688182 C5.08918977,4.57550409 5.0906083,4.57409465 5.09199532,4.57265455 C5.09351089,4.56988644 5.09492993,4.56706656 5.09624986,4.5642 C5.09769886,4.56282227 5.09911739,4.56141284 5.10050441,4.55997273 C5.10059178,4.55715522 5.10059178,4.55433569 5.10050441,4.55151818 C5.10059178,4.54870068 5.10059178,4.54588114 5.10050441,4.54306364 C5.10195341,4.5416859 5.10337193,4.54027647 5.10475895,4.53883636 C5.10484633,4.53601886 5.10484633,4.53319932 5.10475895,4.53038182 C5.10478079,4.52897281 5.10478079,4.52756355 5.10475895,4.52615455 C5.10484633,4.52333704 5.10484633,4.5205175 5.10475895,4.5177 C5.10478079,4.51629099 5.10478079,4.51488173 5.10475895,4.51347273 C5.10484633,4.51065522 5.10484633,4.50783569 5.10475895,4.50501818 C5.10478079,4.50360918 5.10478079,4.50219992 5.10475895,4.50079091 C5.10484633,4.4979734 5.10484633,4.49515387 5.10475895,4.49233636 C5.10478079,4.49092736 5.10478079,4.4895181 5.10475895,4.48810909 C5.10343902,4.48524253 5.10201999,4.48242265 5.10050441,4.47965455 C5.10052625,4.47824554 5.10052625,4.47683628 5.10050441,4.47542727 C5.09918448,4.47256071 5.09776544,4.46974083 5.09624986,4.46697273 C5.0962717,4.46556372 5.0962717,4.46415446 5.09624986,4.46274545 C5.09353443,4.45980354 5.09069077,4.45698263 5.08772714,4.45429091 C5.08774898,4.4528819 5.08774898,4.45147264 5.08772714,4.45006364 C5.08634011,4.44862353 5.08492159,4.4472141 5.08347259,4.44583636 C5.07877217,4.43669868 5.07305407,4.42812152 5.06642714,4.42026818 C5.06504011,4.41882807 5.06362159,4.41741864 5.06217259,4.41604091 L3.86472941,2.4345 C3.84069798,2.39612337 3.79918599,2.3721767 3.75393395,2.37058636 C3.74402068,2.36949567 3.73401768,2.36949567 3.72410441,2.37058636 L3.72409091,2.36918182 Z M3.69,2.66747727 L4.79369318,4.49560909 L4.30789773,4.97713636 C4.26358631,5.02112657 4.25480917,5.08959103 4.28659091,5.14333636 C4.90948909,6.22201364 5.63525318,7.04528182 6.64738636,7.49135455 C6.69854713,7.51263111 6.75749552,7.50083874 6.79653409,7.46151818 L7.31215909,6.9459 L9.10619318,8.06663182 C8.91424636,8.55267273 8.64519409,8.85424091 8.32636364,9.02117727 C7.98578468,9.19951364 7.57797409,9.22935 7.12892045,9.13624091 C6.23081305,8.94999545 5.18375045,8.25890455 4.32920455,7.38481364 C3.4746585,6.51072273 2.81173773,5.45346818 2.63744318,4.55952273 C2.55029577,4.11256364 2.58511909,3.71292273 2.76102273,3.38765455 C2.92556045,3.0834 3.21753955,2.83220455 3.69,2.66747727 Z" id="Shape"></path>
                                <path d="M5.86363636,0.0493868182 C2.62766455,0.0493868182 -6.8181818e-08,2.67568636 -6.8181818e-08,5.91302727 C-6.8181818e-08,7.11128182 0.361090841,8.22800455 0.997756227,9.18362727 L0.308480386,11.4839045 C0.293818243,11.5329037 0.30780484,11.5859875 0.344707904,11.6214002 C0.381610967,11.6568128 0.435226007,11.6686004 0.483579409,11.6519318 L2.73681805,10.8743182 C3.63992032,11.4456273 4.71413714,11.7766636 5.86363636,11.7766636 C9.10094045,11.7766636 11.7272727,9.15032727 11.7272727,5.91302727 C11.7272727,2.67571364 9.10094045,0.0493868182 5.86363636,0.0493868182 L5.86363636,0.0493868182 Z M5.86363636,0.322114091 C8.95360514,0.322114091 11.4545455,2.82305455 11.4545455,5.91302727 C11.4545455,9.003 8.95360514,11.5039364 5.86363636,11.5039364 C4.74351805,11.5039364 3.70051759,11.1751909 2.82877909,10.6095545 C2.7935453,10.5867061 2.74974989,10.5813639 2.71005682,10.5950727 L0.646065,11.3073955 L1.27742864,9.20037273 C1.28922993,9.16099427 1.28263866,9.11839345 1.25948864,9.08442273 C0.628900909,8.15919545 0.272727205,7.07836364 0.272727205,5.91302727 C0.272727205,2.82309545 2.77506273,0.322114091 5.86363636,0.322114091 L5.86363636,0.322114091 Z" id="Shape"></path>
                            </g>
                        </g>
                    </g>
                </g>
            </g>
        </g>
    </g>
</svg>